<svg width="64" height="64" viewBox="0 0 64 64" fill="none" xmlns="http://www.w3.org/2000/svg">
<path d="M63.792 56.915C63.792 58.7385 63.0677 60.4872 61.7784 61.7767C60.4891 63.0662 58.7405 63.7907 56.917 63.791H6.875C5.05154 63.7907 3.30286 63.0662 2.01358 61.7767C0.724296 60.4872 -1.92838e-08 58.7385 0 56.915L0 6.875C0.000795023 5.05188 0.725379 3.30366 2.01452 2.01452C3.30366 0.725379 5.05188 0.000795023 6.875 0L56.917 0C58.7402 0.000530154 60.4886 0.725029 61.7778 2.01423C63.067 3.30342 63.7915 5.0518 63.792 6.875V56.915Z" fill="#37B34A"/>
<path d="M53.867 14.14C52.9284 13.3384 51.71 12.9423 50.4796 13.0387C49.2491 13.1351 48.1072 13.7161 47.305 14.654L27.2649 38.091L16.4839 29.091C16.0571 28.7239 15.5616 28.4452 15.0262 28.2713C14.4908 28.0974 13.9261 28.0316 13.365 28.0778C12.8039 28.124 12.2576 28.2813 11.7579 28.5405C11.2581 28.7997 10.8148 29.1557 10.4539 29.5877C10.0929 30.0197 9.82138 30.5192 9.65513 31.057C9.48889 31.5949 9.43122 32.1605 9.48547 32.7208C9.53972 33.2812 9.70482 33.8252 9.97117 34.3212C10.2375 34.8172 10.5998 35.2553 11.0369 35.61L25.4809 47.67C25.9263 48.0414 26.4434 48.317 27 48.4797C27.5565 48.6425 28.1407 48.6889 28.7159 48.616C29.3261 48.5689 29.9209 48.4019 30.4664 48.1246C31.0119 47.8473 31.4973 47.4651 31.8949 47L54.3779 20.7C55.1786 19.761 55.5741 18.5427 55.4776 17.3125C55.381 16.0823 54.8003 14.9406 53.8629 14.138" fill="#F4F4F4"/>
</svg>
