<svg width="175" height="current" viewBox="0 0 175 27" fill="none" xmlns="http://www.w3.org/2000/svg">
<path d="M9.62527 21.068H5.88127L5.37727 26H0.877266L4.47727 0.799998H11.0293L14.6293 26H10.1293L9.62527 21.068ZM9.22927 17.468L7.89727 4.904H7.60927L6.27727 17.468H9.22927ZM16.2349 0.799998H20.5549V22.4H24.9829V26H16.2349V0.799998ZM27.1334 0.799998H31.4534V26H27.1334V0.799998ZM37.4004 0.799998L39.6324 21.896H39.9204L42.1524 0.799998H46.6524L43.0524 26H36.5004L32.9004 0.799998H37.4004ZM48.0865 0.799998H56.8345V4.4H52.4065V11.024H55.7545V14.624H52.4065V22.4H56.8345V26H48.0865V0.799998ZM80.4685 10.088H76.1485V5.912C76.1485 5.36 76.0165 4.928 75.7525 4.616C75.4885 4.304 75.0445 4.148 74.4205 4.148C73.7965 4.148 73.3405 4.304 73.0525 4.616C72.7885 4.928 72.6565 5.36 72.6565 5.912V20.888C72.6565 21.44 72.7885 21.872 73.0525 22.184C73.3405 22.496 73.7965 22.652 74.4205 22.652C75.0445 22.652 75.4885 22.496 75.7525 22.184C76.0165 21.872 76.1485 21.44 76.1485 20.888V16.28H80.4685V21.212C80.4685 24.644 78.4405 26.36 74.3845 26.36C70.3525 26.36 68.3365 24.644 68.3365 21.212V5.588C68.3365 2.156 70.3525 0.439999 74.3845 0.439999C78.4405 0.439999 80.4685 2.156 80.4685 5.588V10.088ZM83.1724 0.799998H87.4924V20.888C87.4924 21.44 87.6244 21.872 87.8884 22.184C88.1764 22.496 88.6324 22.652 89.2564 22.652C89.8804 22.652 90.3244 22.496 90.5884 22.184C90.8524 21.872 90.9844 21.44 90.9844 20.888V0.799998H95.3044V21.212C95.3044 24.644 93.2764 26.36 89.2204 26.36C85.1884 26.36 83.1724 24.644 83.1724 21.212V0.799998ZM98.1841 0.799998H104.268C108.3 0.799998 110.316 2.516 110.316 5.948V9.728C110.316 10.952 110.052 11.96 109.524 12.752C109.02 13.544 108.228 14.072 107.148 14.336V14.624C107.58 14.672 107.964 14.924 108.3 15.38C108.636 15.812 108.852 16.316 108.948 16.892L110.316 26H105.672L103.944 14.876H102.504V26H98.1841V0.799998ZM102.504 4.508V11.528H104.232C104.856 11.528 105.3 11.372 105.564 11.06C105.852 10.748 105.996 10.316 105.996 9.764V6.272C105.996 5.72 105.852 5.288 105.564 4.976C105.3 4.664 104.856 4.508 104.232 4.508H102.504ZM120.508 21.068H116.764L116.26 26H111.76L115.36 0.799998H121.912L125.512 26H121.012L120.508 21.068ZM120.112 17.468L118.78 4.904H118.492L117.16 17.468H120.112ZM128.8 4.4H124.948V0.799998H137.008V4.4H133.12V26H128.8V4.4ZM138.825 0.799998H143.145V26H138.825V0.799998ZM158.164 21.212C158.164 24.644 156.136 26.36 152.08 26.36C148.048 26.36 146.032 24.644 146.032 21.212V5.588C146.032 2.156 148.048 0.439999 152.08 0.439999C156.136 0.439999 158.164 2.156 158.164 5.588V21.212ZM150.352 20.888C150.352 21.44 150.484 21.872 150.748 22.184C151.036 22.496 151.492 22.652 152.116 22.652C152.74 22.652 153.184 22.496 153.448 22.184C153.712 21.872 153.844 21.44 153.844 20.888V5.912C153.844 5.36 153.712 4.928 153.448 4.616C153.184 4.304 152.74 4.148 152.116 4.148C151.492 4.148 151.036 4.304 150.748 4.616C150.484 4.928 150.352 5.36 150.352 5.912V20.888ZM161.044 0.799998H167.416L170.404 18.764H170.692L170.548 0.799998H174.868V26H168.532L165.508 7.82H165.22L165.364 26H161.044V0.799998Z" fill="black"/>
</svg>
